<svg xmlns="http://www.w3.org/2000/svg" xmlns:xlink="http://www.w3.org/1999/xlink" width="1080" zoomAndPan="magnify" viewBox="0 0 810 809.999993" height="1080" preserveAspectRatio="xMidYMid meet" version="1.0"><defs><clipPath id="48ddc9e20e"><path d="M 98.882812 632 L 653 632 L 653 782 L 98.882812 782 Z M 98.882812 632 " clip-rule="nonzero"/></clipPath><clipPath id="07fe903335"><path d="M 113 28 L 710.882812 28 L 710.882812 349 L 113 349 Z M 113 28 " clip-rule="nonzero"/></clipPath></defs><path fill="#605dc8" d="M 205.3125 600.113281 C 189.722656 600.113281 178.078125 587.601562 178.078125 572.035156 L 178.078125 439.730469 C 178.078125 362.5 174.132812 381.175781 230.21875 325.800781 C 474.621094 94.949219 379.714844 98.0625 610.917969 336.695312 C 652.90625 383.511719 652.132812 360.882812 652.132812 436.554688 L 652.132812 571.976562 C 652.132812 587.601562 639.707031 600.054688 624.058594 600.054688 L 205.3125 600.054688 Z M 205.3125 600.113281 " fill-opacity="1" fill-rule="evenodd"/><g clip-path="url(#48ddc9e20e)"><path fill="#605dc8" d="M 633.070312 632.265625 L 198.074219 634.0625 C 181.890625 634.121094 163.734375 643.820312 157.222656 655.914062 L 149.039062 671.121094 L 108.1875 746.914062 L 101.316406 759.722656 C 94.808594 771.757812 101.734375 781.394531 117.921875 781.335938 L 552.914062 779.542969 C 569.101562 779.480469 587.257812 769.78125 593.769531 757.6875 L 601.953125 742.480469 L 642.804688 666.6875 L 649.671875 653.878906 C 656.183594 641.84375 649.253906 632.203125 633.070312 632.265625 Z M 633.070312 632.265625 " fill-opacity="1" fill-rule="evenodd"/></g><g clip-path="url(#07fe903335)"><path fill="#605dc8" d="M 142.953125 348.128906 C 137.457031 348.128906 131.902344 346.632812 126.945312 343.460938 C 113.089844 334.660156 109.089844 316.039062 117.867188 302.152344 C 124.199219 292.035156 145.582031 270.480469 194.140625 222.824219 L 209.488281 207.738281 C 249.863281 169.542969 280.683594 138.171875 305.410156 112.910156 C 361.136719 56.035156 389.328125 27.296875 425.703125 28.496094 C 461.777344 29.453125 486.800781 57.890625 536.554688 114.464844 C 560.984375 142.242188 591.324219 176.789062 632.296875 219.054688 C 632.535156 219.351562 632.835938 219.59375 633.074219 219.890625 C 638.808594 226.238281 647.230469 235.519531 656.308594 245.457031 C 686.292969 278.265625 700.925781 294.429688 705.34375 300.652344 C 714.902344 314.007812 711.796875 332.625 698.476562 342.203125 C 685.15625 351.722656 666.582031 348.667969 657.027344 335.320312 C 653.261719 330.351562 627.757812 302.390625 612.527344 285.75 C 603.507812 275.867188 595.089844 266.648438 589.296875 260.242188 C 547.546875 217.140625 516.785156 182.117188 492 153.976562 C 462.375 120.273438 434.363281 88.421875 424.089844 88.121094 L 423.96875 88.121094 C 413.039062 88.121094 381.324219 120.453125 347.816406 154.695312 C 322.734375 180.320312 291.496094 212.171875 250.703125 250.664062 L 235.648438 265.453125 C 215.582031 285.148438 173.890625 326.039062 167.679688 334.539062 C 162.066406 343.460938 152.628906 348.25 142.894531 348.25 Z M 142.953125 348.128906 " fill-opacity="1" fill-rule="nonzero"/></g><path fill="#ffffff" d="M 480.949219 598.679688 L 480.949219 475.050781 C 480.949219 464.8125 472.644531 456.492188 462.433594 456.492188 L 361.613281 456.492188 C 351.398438 456.492188 343.097656 464.8125 343.097656 475.050781 L 343.097656 598.679688 C 343.097656 599.695312 342.917969 600.714844 342.621094 601.671875 L 481.425781 601.671875 C 481.125 600.714844 480.949219 599.757812 480.949219 598.679688 Z M 480.949219 598.679688 " fill-opacity="1" fill-rule="evenodd"/></svg>